<?xml version="1.0" encoding="UTF-8" standalone="no"?>
<!DOCTYPE svg PUBLIC "-//W3C//DTD SVG 1.1//EN"
 "http://www.w3.org/Graphics/SVG/1.1/DTD/svg11.dtd">
<!-- Generated by graphviz version 2.38.0 (20140413.2041)
 -->
<!-- Title: lambda Pages: 1 -->
<svg width="582pt" height="335pt"
 viewBox="0.00 0.00 582.26 334.86" xmlns="http://www.w3.org/2000/svg" xmlns:xlink="http://www.w3.org/1999/xlink">
<g id="graph0" class="graph" transform="scale(1 1) rotate(0) translate(4 330.86)">
<title>lambda</title>
<polygon fill="white" stroke="none" points="-4,4 -4,-330.86 578.262,-330.86 578.262,4 -4,4"/>
<!-- v1 -->
<g id="node1" class="node"><title>v1</title>
<ellipse fill="white" stroke="black" cx="84.1457" cy="-163.43" rx="84.2917" ry="37.4533"/>
<text text-anchor="middle" x="84.1457" y="-174.73" font-family="Times,serif" font-size="14.00" fill="red">true</text>
<text text-anchor="middle" x="84.1457" y="-159.73" font-family="Times,serif" font-size="14.00" fill="red">Bool/Bool &#45;&gt; Bool</text>
<text text-anchor="middle" x="84.1457" y="-144.73" font-family="Times,serif" font-size="14.00" fill="red">(1)</text>
</g>
<!-- v2 -->
<g id="node2" class="node"><title>v2</title>
<ellipse fill="white" stroke="black" cx="270.146" cy="-163.43" rx="84.2917" ry="37.4533"/>
<text text-anchor="middle" x="270.146" y="-174.73" font-family="Times,serif" font-size="14.00" fill="red">true</text>
<text text-anchor="middle" x="270.146" y="-159.73" font-family="Times,serif" font-size="14.00" fill="red">Bool/Bool &#45;&gt; Bool</text>
<text text-anchor="middle" x="270.146" y="-144.73" font-family="Times,serif" font-size="14.00" fill="red">(1)</text>
</g>
<!-- v4 -->
<g id="node3" class="node"><title>v4</title>
<ellipse fill="white" stroke="black" cx="473.146" cy="-37.4767" rx="43.6818" ry="37.4533"/>
<text text-anchor="middle" x="473.146" y="-48.7767" font-family="Times,serif" font-size="14.00">var(x)</text>
<text text-anchor="middle" x="473.146" y="-33.7767" font-family="Times,serif" font-size="14.00">&#39;a4/Bool</text>
<text text-anchor="middle" x="473.146" y="-18.7767" font-family="Times,serif" font-size="14.00">(0)</text>
</g>
<!-- v3 -->
<g id="node4" class="node"><title>v3</title>
<ellipse fill="white" stroke="black" cx="473.146" cy="-163.43" rx="101.233" ry="37.4533"/>
<text text-anchor="middle" x="473.146" y="-174.73" font-family="Times,serif" font-size="14.00">abs</text>
<text text-anchor="middle" x="473.146" y="-159.73" font-family="Times,serif" font-size="14.00">&#39;a4 &#45;&gt; &#39;a4/Bool &#45;&gt; Bool</text>
<text text-anchor="middle" x="473.146" y="-144.73" font-family="Times,serif" font-size="14.00">(1)</text>
</g>
<!-- v3&#45;&gt;v4 -->
<g id="edge1" class="edge"><title>v3&#45;&gt;v4</title>
<path fill="none" stroke="black" d="M462.984,-126.133C461.058,-115.481 459.967,-103.783 461.146,-92.9533 461.455,-90.1102 461.853,-87.198 462.314,-84.2707"/>
<polygon fill="black" stroke="black" points="465.776,-84.7977 464.094,-74.3372 458.885,-83.5633 465.776,-84.7977"/>
<text text-anchor="middle" x="464.646" y="-96.7533" font-family="Times,serif" font-size="14.00">1</text>
</g>
<!-- v3&#45;&gt;v4 -->
<g id="edge2" class="edge"><title>v3&#45;&gt;v4</title>
<path fill="none" stroke="black" d="M473.146,-125.91C473.146,-113.163 473.146,-98.6771 473.146,-85.2139"/>
<polygon fill="black" stroke="black" points="476.646,-85.1636 473.146,-75.1636 469.646,-85.1637 476.646,-85.1636"/>
<text text-anchor="middle" x="476.646" y="-96.7533" font-family="Times,serif" font-size="14.00">2</text>
</g>
<!-- v0 -->
<g id="node5" class="node"><title>v0</title>
<ellipse fill="white" stroke="black" cx="270.146" cy="-289.383" rx="44.5955" ry="37.4533"/>
<text text-anchor="middle" x="270.146" y="-300.683" font-family="Times,serif" font-size="14.00" fill="red">if</text>
<text text-anchor="middle" x="270.146" y="-285.683" font-family="Times,serif" font-size="14.00" fill="red">Un/Bool</text>
<text text-anchor="middle" x="270.146" y="-270.683" font-family="Times,serif" font-size="14.00" fill="red">(3)</text>
</g>
<!-- v0&#45;&gt;v1 -->
<g id="edge3" class="edge"><title>v0&#45;&gt;v1</title>
<path fill="none" stroke="black" d="M235.596,-265.359C208.42,-247.248 170.045,-221.675 138.724,-200.802"/>
<polygon fill="black" stroke="black" points="140.355,-197.683 130.092,-195.05 136.473,-203.508 140.355,-197.683"/>
<text text-anchor="middle" x="191.646" y="-222.707" font-family="Times,serif" font-size="14.00">1</text>
</g>
<!-- v0&#45;&gt;v2 -->
<g id="edge4" class="edge"><title>v0&#45;&gt;v2</title>
<path fill="none" stroke="black" d="M270.146,-251.864C270.146,-239.117 270.146,-224.63 270.146,-211.167"/>
<polygon fill="black" stroke="black" points="273.646,-211.117 270.146,-201.117 266.646,-211.117 273.646,-211.117"/>
<text text-anchor="middle" x="273.646" y="-222.707" font-family="Times,serif" font-size="14.00">2</text>
</g>
<!-- v0&#45;&gt;v3 -->
<g id="edge5" class="edge"><title>v0&#45;&gt;v3</title>
<path fill="none" stroke="black" d="M305.971,-266.508C335.561,-248.44 378.202,-222.403 413.012,-201.148"/>
<polygon fill="black" stroke="black" points="414.97,-204.054 421.68,-195.855 411.322,-198.079 414.97,-204.054"/>
<text text-anchor="middle" x="386.646" y="-222.707" font-family="Times,serif" font-size="14.00">3</text>
</g>
</g>
</svg>
